<svg version="1.1" id="Layer_1" xmlns="http://www.w3.org/2000/svg" x="0" y="0" viewBox="0 0 1654.57 345.09" style="enable-background:new 0 0 1654.57 345.09" xml:space="preserve"><style>.st0,.st1{fill-rule:evenodd;clip-rule:evenodd;fill:#231f20}.st1{fill:none}</style><path class="st0" d="M29.24 52.01c-.02-4.12.59-5.62 5.27-5.56 23.99.34 48-.33 71.96.41 35.26 1.1 67.31 11.37 93.44 36.28 17.99 17.14 29.3 38.12 33.75 62.47 8.87 48.51-4.81 89.67-41.76 122.57-20.17 17.96-44.35 26.99-71.05 29.15-29.43 2.38-58.94.49-88.41 1.13-3.52.08-3.13-1.83-3.13-4.04.03-24.82.08-202.25-.07-242.41zm49.06 199.1c-.02 3.41.7 4.5 4.3 4.46 9.83-.13 19.67-.03 29.44-1.12 17.84-2 34.56-7.12 47.62-20.18 21.95-21.96 30.01-48.66 23.92-78.87-6.14-30.43-23.65-51.87-54.02-61.28-14.79-4.58-30.17-4.3-45.48-4.49-4.36-.05-5.87.81-5.82 5.6.26 25.8.19 129.73.04 155.88zM1517.87 192.83l78.93 105.56h-10.61c-14.83 0-29.67-.23-44.5.14-4.49.11-6.76-1.56-9.08-5.05-20.56-30.82-41.3-61.53-61.99-92.26-.28-.42-.62-.81-.8-1.26-1.25-3.07-3.94-2.87-6.32-2.38-2.63.54-1.37 3.01-1.38 4.56-.08 30.17-.19 60.33.07 90.5.04 5.02-1.44 5.99-6.11 5.88-12.99-.33-26-.21-39-.05-3.28.04-4.61-.55-4.6-4.28.11-81.17.09-162.33.04-243.5 0-2.75.29-4.24 3.7-4.17 27.98.58 56-1.12 83.95 1.03 19.41 1.49 37.66 6.74 52.59 19.97 17.9 15.88 22.94 36.7 21.72 59.64-1.79 33.74-20.17 56.02-52.93 64.32-1.11.28-2.16.79-3.68 1.35zm-55.81-68.24c0 11.14.2 22.29-.11 33.43-.11 3.91 1.13 4.67 4.72 4.53 7.3-.3 14.61-.14 21.91-.91 21.39-2.26 33.55-14.62 35.13-36.04 1.28-17.25-7.54-30.3-23.95-35.68-10.79-3.54-21.92-3.15-33.04-3.37-3.63-.07-4.87.72-4.77 4.6.3 11.14.11 22.29.11 33.44zM1241.24 51.49c-.01-3.78.76-5.01 4.83-5 43.33.17 86.65.14 129.98.03 3.37-.01 4.59.65 4.51 4.3a832.95 832.95 0 0 0 0 34.99c.07 3.52-1.23 3.99-4.27 3.97-26.83-.1-53.66.06-80.48-.18-4.56-.04-5.47 1.29-5.39 5.57.27 15.16.24 30.33.01 45.49-.06 3.79 1.01 4.71 4.73 4.68 25.83-.17 51.66.02 77.48-.2 4.08-.03 4.86 1.22 4.78 4.97-.24 11.16-.24 22.33 0 33.49.07 3.53-.93 4.37-4.4 4.35-25.66-.15-51.33.06-76.98-.21-4.79-.05-5.67 1.46-5.62 5.85.23 18.99.2 37.99.01 56.99-.04 3.78.75 5.02 4.83 4.99 26.83-.21 53.66-.01 80.48-.21 4-.03 4.9 1.11 4.82 4.93-.25 11.49-.17 23-.03 34.49.03 2.75-.64 3.69-3.56 3.68-43.99-.09-87.98-.12-131.98.04-4.01.02-3.69-1.94-3.69-4.56.03-40.66.07-202.3-.06-242.45zM357.92 225.64c6.63 12.4 15.37 22.49 28.24 28.15 13.83 6.08 28.08 8.2 42.44 1.78 13.05-5.83 20.1-16.24 20.66-30.4.56-14.04-6.95-23.44-19.11-29.51-13.98-6.98-29.09-11.12-43.37-17.32-13.96-6.06-27.25-13.08-36.89-25.49-5.89-7.59-9.15-16.26-10.3-25.54-5.09-41.35 17.56-70.93 51.91-80.65 35.88-10.15 68.19-1.23 97.14 21.52 2.14 1.68 2.87 2.87.82 5.43-7.37 9.23-14.57 18.6-21.54 28.13-2.12 2.9-3.04 2.08-4.97.02-7.87-8.4-16.91-15.21-28.62-16.88-14.78-2.11-28.77-.22-39.06 12.03-9.2 10.96-7.16 24.75 4.46 33.01 10.4 7.39 22.53 11.11 34.26 15.64 11 4.25 21.74 9 32.02 14.83 20.98 11.89 32.5 29.34 34.01 53.79 2.53 41.28-19.16 76.13-59.58 86.52-43.12 11.08-85.26-1.19-112.92-42.03-1.14-1.69-1.27-2.67.31-4.16 10.03-9.52 19.95-19.12 30.09-28.87zM977.43 46.59c17.09 0 33.42.11 49.74-.09 3.27-.04 4.54 1.13 5.67 3.99 15.02 38.03 58.31 146.94 64.96 163.75 3.04-3.35 46.29-113.05 66.68-163.92.81-2.03 1.4-3.82 4.36-3.79 16.65.15 33.31.07 50.67.07-3.96 9.51-75.29 178.76-107.04 254.33-1.26 2.99-2.65 3.97-5.77 3.85-6.32-.24-12.66-.22-18.99 0-2.82.1-4.09-.93-5.13-3.46-19.56-47.46-88.21-213.28-102.87-248.78-.75-1.82-1.41-3.67-2.28-5.95zM709.59 114.68c-9.29-8.88-18.19-16.35-28.82-21.27-41.84-19.35-92.21 1.43-108.33 45.81-12.42 34.18-8.29 66.68 16.67 94.43 16.69 18.56 38.73 25.33 63.32 25.07 19.51-.2 35.64-8.14 49.91-20.74 2.1-1.86 4.13-3.79 6.17-5.67 1.77.97 1.04 2.47 1.05 3.64.06 16.5.01 33 .07 49.5.01 2.5-.36 4.03-3.08 5.34-50.52 24.33-114.44 14.7-153.96-25.76-24.46-25.04-36.51-55.27-37.27-90.26-1.29-59.21 38.16-110.84 93.04-127.42 33.67-10.18 66.55-8.23 98.27 7.69 1.71.86 3.03 1.59 3.02 3.95-.1 18.15-.06 36.31-.06 55.69zM307.98 292.9c.02 4.14-.6 5.77-5.33 5.63-13.32-.39-26.66-.24-39.99-.06-3.23.04-4.23-.79-4.23-4.13.09-81.16.1-162.32-.01-243.49 0-3.66 1.2-4.38 4.55-4.33 13.16.18 26.34.27 39.49-.04 4.36-.1 5.56.94 5.54 5.44-.18 40.33-.16 200.99-.02 240.98z"/><path class="st1" d="M1597.18 52.05c.11.59.22 1.18.32 1.77-.01 6.79-.03 13.58-.04 20.37-.07.84-.14 1.68-.22 2.52-8.47-7.01-8.5-17.96-.06-24.66zM78.25 95.22c-.05-4.79 1.46-5.65 5.82-5.6 15.31.19 30.69-.09 45.48 4.49 30.37 9.41 47.88 30.85 54.02 61.28 6.09 30.21-1.97 56.91-23.92 78.87-13.06 13.06-29.78 18.18-47.62 20.18-9.77 1.09-19.61.99-29.44 1.12-3.61.05-4.32-1.04-4.3-4.46.16-26.14.23-130.07-.04-155.88zM1462.06 124.59c0-11.15.18-22.29-.1-33.43-.1-3.88 1.14-4.67 4.77-4.6 11.12.22 22.25-.17 33.04 3.37 16.41 5.38 25.22 18.43 23.95 35.68-1.59 21.42-13.75 33.78-35.13 36.04-7.3.77-14.61.61-21.91.91-3.58.15-4.82-.62-4.72-4.53.3-11.15.1-22.3.1-33.44z"/><path d="M1606.07 44.86c-10.64 0-19.26 8.7-19.26 19.44s8.62 19.44 19.26 19.44 19.26-8.7 19.26-19.44-8.62-19.44-19.26-19.44zm0 35.27c-8.38 0-15.18-7.09-15.18-15.83s6.8-15.83 15.18-15.83c8.39 0 15.18 7.09 15.18 15.83s-6.79 15.83-15.18 15.83z" style="fill-rule:evenodd;clip-rule:evenodd;fill:#252122"/><path class="st0" d="M1607.75 66.28c2.38 3.18 4.73 6.32 7.12 9.53h-.96c-1.34 0-2.68-.02-4.02.01-.4.01-.61-.14-.82-.46-1.86-2.78-3.73-5.55-5.6-8.33-.03-.04-.06-.07-.07-.11-.11-.28-.36-.26-.57-.22-.24.05-.12.27-.12.41-.01 2.72-.02 5.45.01 8.17 0 .45-.13.54-.55.53-1.17-.03-2.35-.02-3.52 0-.3 0-.42-.05-.42-.39.01-7.33.01-14.65 0-21.98 0-.25.03-.38.33-.38 2.52.05 5.05-.1 7.58.09 1.75.13 3.4.61 4.75 1.8 1.62 1.43 2.07 3.31 1.96 5.38-.16 3.05-1.82 5.06-4.78 5.81-.09.05-.18.09-.32.14zm-5.04-6.16c0 1.01.02 2.01-.01 3.02-.01.35.1.42.43.41.66-.03 1.32-.01 1.98-.08 1.93-.2 3.03-1.32 3.17-3.25.11-1.56-.68-2.74-2.16-3.22-.97-.32-1.98-.29-2.98-.3-.33 0-.44.07-.43.42.02.99 0 2 0 3z"/><linearGradient id="SVGID_1_" gradientUnits="userSpaceOnUse" x1="801.909" y1="51.548" x2="914.752" y2="293.541"><stop offset=".383" style="stop-color:#e35e26"/><stop offset="1" style="stop-color:#f9a121"/></linearGradient><ellipse cx="858.33" cy="172.54" rx="133.08" ry="133.56" style="fill-rule:evenodd;clip-rule:evenodd;fill:url(#SVGID_1_)"/></svg>