<svg xmlns="http://www.w3.org/2000/svg" version="1.1" xmlns:xlink="http://www.w3.org/1999/xlink" xmlns:svgjs="http://svgjs.com/svgjs" width="512" height="512" x="0" y="0" viewBox="0 0 512 512" style="enable-background:new 0 0 512 512" xml:space="preserve" class=""><g><linearGradient id="a"><stop offset="0" stop-color="#45425a"></stop><stop offset="1" stop-color="#2d3251"></stop></linearGradient><linearGradient xlink:href="#a" id="f" x1="255.522" x2="331.498" y1="23.637" y2="95.907" gradientUnits="userSpaceOnUse"></linearGradient><linearGradient id="b"><stop offset="0" stop-color="#ecf7ff"></stop><stop offset="1" stop-color="#c2e0ff"></stop></linearGradient><linearGradient xlink:href="#b" id="g" x1="256" x2="256" y1="105.28" y2="120.3" gradientUnits="userSpaceOnUse"></linearGradient><linearGradient xlink:href="#b" id="h" x1="256" x2="256" y1="125.951" y2="159.922" gradientUnits="userSpaceOnUse"></linearGradient><linearGradient xlink:href="#a" id="i" x1="256" x2="256" y1="158.198" y2="433.982" gradientUnits="userSpaceOnUse"></linearGradient><linearGradient id="c"><stop offset="0" stop-color="#2d3251" stop-opacity="0"></stop><stop offset=".049" stop-color="#2d3251" stop-opacity=".047"></stop><stop offset="1" stop-color="#2d3251"></stop></linearGradient><linearGradient xlink:href="#c" id="j" x1="62.284" x2="135.051" y1="330.548" y2="360.659" gradientUnits="userSpaceOnUse"></linearGradient><linearGradient xlink:href="#a" id="k" x1="439.544" x2="363.59" y1="342.341" y2="397.581" gradientUnits="userSpaceOnUse"></linearGradient><linearGradient xlink:href="#c" id="l" x1="426.074" x2="246.194" y1="305.864" y2="125.983" gradientUnits="userSpaceOnUse"></linearGradient><linearGradient xlink:href="#a" id="m" x1="1358.176" x2="1458.699" y1="153.618" y2="254.141" gradientTransform="rotate(180 891.223 226.478) scale(1.00392)" gradientUnits="userSpaceOnUse"></linearGradient><linearGradient xlink:href="#c" id="n" x1="237.107" x2="11.005" y1="331.999" y2="105.897" gradientUnits="userSpaceOnUse"></linearGradient><linearGradient xlink:href="#a" id="o" x1="1178.499" x2="1261.512" y1="162.996" y2="246.009" gradientTransform="rotate(180 688.774 226.478) scale(1.00392)" gradientUnits="userSpaceOnUse"></linearGradient><linearGradient xlink:href="#c" id="p" x1="190.048" x2="101.299" y1="284.936" y2="196.187" gradientUnits="userSpaceOnUse"></linearGradient><linearGradient xlink:href="#b" id="q" x1="134.652" x2="162.234" y1="229.54" y2="257.122" gradientUnits="userSpaceOnUse"></linearGradient><linearGradient xlink:href="#c" id="r" x1="396.947" x2="63.72" y1="505.864" y2="172.637" gradientUnits="userSpaceOnUse"></linearGradient><linearGradient xlink:href="#a" id="s" x1="190.843" x2="190.843" y1="323.496" y2="411.163" gradientUnits="userSpaceOnUse"></linearGradient><linearGradient xlink:href="#a" id="t" x1="212.236" x2="212.236" y1="1223.888" y2="1292.759" gradientTransform="rotate(180 201.955 808.548) scale(1.00392)" gradientUnits="userSpaceOnUse"></linearGradient><linearGradient xlink:href="#c" id="u" x1="226.418" x2="173.508" y1="400.477" y2="347.567" gradientUnits="userSpaceOnUse"></linearGradient><linearGradient xlink:href="#b" id="v" x1="170.358" x2="197.592" y1="344.417" y2="371.651" gradientUnits="userSpaceOnUse"></linearGradient><linearGradient xlink:href="#a" id="w" x1="321.129" x2="321.129" y1="323.496" y2="411.163" gradientUnits="userSpaceOnUse"></linearGradient><linearGradient xlink:href="#a" id="x" x1="82.458" x2="82.458" y1="1223.888" y2="1292.759" gradientTransform="rotate(180 201.955 808.548) scale(1.00392)" gradientUnits="userSpaceOnUse"></linearGradient><linearGradient xlink:href="#c" id="y" x1="356.705" x2="303.795" y1="400.477" y2="347.567" gradientUnits="userSpaceOnUse"></linearGradient><linearGradient xlink:href="#b" id="z" x1="301.884" x2="336.045" y1="345.656" y2="379.817" gradientUnits="userSpaceOnUse"></linearGradient><linearGradient xlink:href="#a" id="A" x1="331.558" x2="354.136" y1="211.615" y2="234.193" gradientUnits="userSpaceOnUse"></linearGradient><linearGradient xlink:href="#a" id="B" x1="378.695" x2="395.736" y1="258.752" y2="275.793" gradientUnits="userSpaceOnUse"></linearGradient><linearGradient id="C" x1="356.233" x2="380.909" y1="280.312" y2="304.988" gradientUnits="userSpaceOnUse"><stop offset="0" stop-color="#00c6f6"></stop><stop offset=".857" stop-color="#0b9cfd"></stop><stop offset="1" stop-color="#0d94fe"></stop></linearGradient><linearGradient id="D" x1="356.233" x2="380.909" y1="191.733" y2="216.409" gradientUnits="userSpaceOnUse"><stop offset="0" stop-color="#d3e843"></stop><stop offset=".624" stop-color="#a9c93c"></stop><stop offset="1" stop-color="#8db437"></stop></linearGradient><linearGradient id="d"><stop offset="0" stop-color="#ffd459"></stop><stop offset=".23" stop-color="#ffd355"></stop><stop offset=".436" stop-color="#ffcf4a"></stop><stop offset=".634" stop-color="#ffc838"></stop><stop offset=".825" stop-color="#ffbf1f"></stop><stop offset="1" stop-color="#ffb400"></stop></linearGradient><linearGradient xlink:href="#d" id="E" x1="311.944" x2="336.62" y1="236.022" y2="260.699" gradientUnits="userSpaceOnUse"></linearGradient><linearGradient id="e"><stop offset="0" stop-color="#ff706a"></stop><stop offset=".811" stop-color="#f64640"></stop><stop offset="1" stop-color="#f43b36"></stop></linearGradient><linearGradient xlink:href="#e" id="F" x1="400.79" x2="425.467" y1="236.022" y2="260.699" gradientUnits="userSpaceOnUse"></linearGradient><linearGradient xlink:href="#d" id="G" x1="231.287" x2="231.287" y1="293.544" y2="319.162" gradientUnits="userSpaceOnUse"></linearGradient><linearGradient xlink:href="#e" id="H" x1="280.685" x2="280.685" y1="293.544" y2="319.162" gradientUnits="userSpaceOnUse"></linearGradient><linearGradient xlink:href="#c" id="I" x1="256" x2="256" y1="102.848" y2="87.325" gradientUnits="userSpaceOnUse"></linearGradient><linearGradient xlink:href="#c" id="J" x1="253.017" x2="262.374" y1="35.708" y2="60.448" gradientUnits="userSpaceOnUse"></linearGradient><path fill="url(#f)" d="M269.332 116.164h-26.664V80.832H229.77c-22.055 0-40.618-17.36-41.16-39.41C188.054 18.71 206.34.05 228.917 0h.094c22.242.05 40.32 18.16 40.32 40.414v13.75h123.082c7.363 0 13.332 5.969 13.332 13.332 0 7.367-5.969 13.336-13.332 13.336H269.332zm-40.367-89.496c-7.559.023-13.7 6.184-13.7 13.746 0 7.582 6.169 13.75 13.747 13.75h13.656v-13.75c0-7.562-6.145-13.723-13.703-13.746zm0 0" data-original="url(#f)"></path><path fill="url(#g)" d="M283.8 129.91h-55.6v-14.047c0-7.425 6.019-13.445 13.445-13.445h28.714c7.422 0 13.442 6.02 13.442 13.445zm0 0" data-original="url(#g)" class=""></path><path fill="url(#h)" d="M363.316 181.652H148.684v-43.875c0-10.105 8.191-18.297 18.3-18.297H345.02c10.105 0 18.296 8.192 18.296 18.297zm0 0" data-original="url(#h)" class=""></path><path fill="url(#i)" d="M508.746 354.945A79.897 79.897 0 0 1 512 377.613c0 28.801-15.2 54.055-38.008 68.176a75.675 75.675 0 0 1-9.008 4.82c-.78.364-1.578.711-2.386 1.047-9.473 3.938-19.864 6.117-30.774 6.117-22.066 0-42.054-8.91-56.539-23.34l-.14-.14c-.016-.012-.028-.027-.043-.04l-.586-.589a198.461 198.461 0 0 0-1.594-1.562c-.527-.516-1.059-1.036-1.606-1.536-.472-.46-.96-.906-1.437-1.34a37.92 37.92 0 0 0-.938-.867c-.125-.113-.261-.226-.39-.336-.04-.043-.07-.082-.11-.113-.433-.39-.867-.765-1.3-1.156-.793-.7-1.59-1.399-2.403-2.082a118.382 118.382 0 0 0-2.804-2.336c-.13-.11-.282-.223-.422-.348-.028-.027-.055-.043-.07-.054 0 0-.012-.016-.028-.032-.012 0-.027-.011-.055-.039-.28-.226-.547-.433-.812-.644l-.207-.168a82.61 82.61 0 0 0-1.719-1.34 1.427 1.427 0 0 0-.21-.152 5.939 5.939 0 0 0-.49-.391c-.109-.086-.222-.168-.335-.254a2.346 2.346 0 0 0-.234-.18c-.477-.379-.965-.726-1.454-1.09-.21-.167-.433-.32-.656-.476-.379-.293-.77-.57-1.16-.852-.113-.082-.223-.168-.336-.234a58.497 58.497 0 0 0-1.594-1.133c-.265-.183-.515-.363-.78-.531a.515.515 0 0 0-.18-.125c-.098-.07-.184-.14-.282-.211h-.012c-1.3-.895-2.613-1.758-3.925-2.613-.336-.223-.672-.43-1.02-.656-.281-.18-.574-.364-.867-.532a1.5 1.5 0 0 0-.32-.195v-.012h-.016c-.14-.097-.293-.195-.445-.293-.32-.199-.645-.394-.965-.586a31.46 31.46 0 0 0-1.48-.883c-.477-.304-.95-.585-1.438-.863-.043-.031-.086-.043-.125-.07-.086-.043-.184-.113-.293-.168-.168-.098-.352-.195-.52-.293a121.682 121.682 0 0 0-3.199-1.79c-.012-.015-.039-.015-.055-.042h-.015a146.56 146.56 0 0 0-3.293-1.73c-.645-.336-1.285-.657-1.93-.981a64.575 64.575 0 0 0-1.648-.809c-.043-.027-.082-.054-.125-.07 0 .016-.016 0-.016 0-.418-.21-.824-.406-1.242-.601-.027-.012-.055-.028-.082-.028-.309-.152-.629-.305-.95-.46-.687-.305-1.355-.614-2.038-.923a14.066 14.066 0 0 0-.938-.418c-.266-.109-.543-.238-.808-.347-.043-.032-.07-.043-.114-.043-.011-.028-.043-.028-.054-.028-.157-.07-.32-.14-.477-.226-.277-.11-.57-.238-.867-.363-.137-.055-.278-.11-.403-.168h-.015c-.07-.028-.137-.07-.195-.098h-.012c-.324-.137-.645-.262-.965-.39a11.894 11.894 0 0 0-.531-.223 13.455 13.455 0 0 0-.715-.278c-.473-.199-.95-.394-1.422-.574-.293-.113-.602-.238-.895-.348-.082-.03-.168-.058-.25-.097-.867-.324-1.734-.656-2.613-.965-.14-.055-.293-.113-.445-.168-1.117-.406-2.25-.797-3.383-1.188-.46-.152-.922-.308-1.383-.46-.824-.266-1.633-.516-2.457-.77l-1.633-.5c-.855-.254-1.691-.492-2.543-.742-.195-.055-.378-.11-.558-.153-.813-.222-1.621-.445-2.434-.644h-.011c-.028-.027-.06-.027-.083-.027-.015-.012-.03-.012-.042-.012-.852-.227-1.704-.45-2.57-.656-.532-.13-1.075-.254-1.606-.38a95.41 95.41 0 0 0-2.278-.515 54.119 54.119 0 0 0-2.18-.46c-.53-.114-1.074-.227-1.605-.337a146.39 146.39 0 0 0-2.781-.52c-.445-.07-.895-.152-1.34-.238a150.46 150.46 0 0 0-3.45-.543c-2.07-.308-4.148-.574-6.218-.796-.781-.098-1.562-.168-2.332-.25a133.54 133.54 0 0 0-3.574-.293 14.62 14.62 0 0 0-1.09-.086 93.15 93.15 0 0 0-3.324-.196c-1.23-.07-2.461-.109-3.672-.136-.254-.016-.492-.016-.727-.016-1.285-.043-2.57-.055-3.855-.055h-.098c-.851 0-1.691.012-2.527.028h-.379c-.39 0-.77.011-1.16.027h-.266c-.125 0-.261.016-.39.016-.082 0-.168 0-.239.011-.363 0-.738.016-1.101.028-.434.015-.852.031-1.285.058-.336.012-.657.028-.977.043-.168 0-.336.012-.504.028-.097 0-.21 0-.308.027-.18 0-.364 0-.543.027-.114 0-.239 0-.352.016-.586.027-1.172.07-1.758.11-.07 0-.156.015-.226.015-.125.016-.25.016-.375.027h-.016c-.348.028-.684.059-1.02.082-.699.059-1.382.114-2.082.168-.082.016-.167.016-.25.032-.32.027-.628.054-.937.097-.64.055-1.27.125-1.898.195v.012c-.012-.011-.012 0-.012 0h-.016c-.097 0-.195.016-.293.028-.379.03-.754.07-1.117.128a107.8 107.8 0 0 0-3.215.418c-.11.012-.222.028-.332.043-.086 0-.156.012-.238.028-.184.027-.379.054-.559.082-.015 0-.043 0-.058.015-.446.055-.88.11-1.328.196h-.028c-.336.054-.683.11-1.02.168-.406.054-.808.125-1.214.195-1.047.168-2.082.363-3.129.559-.547.097-1.09.21-1.621.308-.434.082-.852.168-1.27.262a.398.398 0 0 0-.183.043c-.211.027-.403.07-.614.125-.238.043-.476.098-.699.14-.21.043-.418.098-.613.141h-.016c-.21.043-.433.098-.629.14a1.74 1.74 0 0 0-.277.055c-.351.082-.687.153-1.02.239a42.984 42.984 0 0 0-1.063.25l-1.214.293c-.097.027-.195.043-.293.07-.504.125-1.008.25-1.511.39-.125.032-.262.06-.391.098-.055.016-.125.028-.18.059h-.015c-1.438.363-2.864.766-4.29 1.172-.167.058-.332.097-.5.152-.058.016-.113.031-.167.043-.141.043-.282.086-.418.14 0 0 0-.015-.016 0-.152.044-.32.083-.477.141-.765.223-1.52.461-2.289.711-.406.114-.812.254-1.215.39a73.64 73.64 0 0 0-2.527.84c-.254.083-.492.169-.715.239-.195.07-.406.14-.601.21-.196.071-.39.138-.586.224-.543.18-1.102.379-1.633.586-.195.07-.39.14-.574.21a6.938 6.938 0 0 0-.516.196c-.363.125-.726.265-1.09.402-.234.086-.472.184-.71.266-.407.168-.798.32-1.188.488-.281.098-.547.211-.813.324-.136.04-.277.098-.402.153-.113.043-.21.082-.309.14-.222.082-.445.168-.671.266-.532.207-1.047.43-1.547.656-.184.082-.38.152-.563.238-.137.067-.293.125-.43.196h-.015c-.082.027-.152.07-.238.11-.18.07-.364.155-.543.222-.196.086-.38.168-.575.265-.32.141-.64.282-.949.422-.922.418-1.828.836-2.738 1.27-.25.11-.488.238-.727.347-.125.043-.25.114-.39.184 0 0-.016.012-.016 0-.305.14-.598.293-.906.46-.238.11-.461.224-.684.337-.168.07-.336.152-.488.25a.336.336 0 0 0-.156.082c-.223.086-.43.195-.657.309l-1.128.585c-1.915.977-3.801 2.012-5.672 3.075-.657.363-1.328.754-1.985 1.144-.195.11-.406.238-.601.348-.364.21-.727.433-1.09.644-.152.098-.32.211-.473.305a.242.242 0 0 0-.097.059c-.184.097-.348.21-.516.304-.156.086-.293.184-.434.266a7.72 7.72 0 0 0-.656.422c-.656.387-1.3.793-1.941 1.21-1.551.981-3.075 2-4.582 3.063a86.578 86.578 0 0 0-2.457 1.715c-.114.086-.227.156-.336.238-.39.278-.782.559-1.16.852-.895.645-1.774 1.3-2.653 1.969-.015.015-.031.015-.031.031a136.412 136.412 0 0 0-3.195 2.512c-.184.125-.352.28-.532.418a143.5 143.5 0 0 0-3.09 2.57c-.808.687-1.605 1.371-2.402 2.082-.43.379-.863.77-1.297 1.16a129.92 129.92 0 0 0-2.879 2.653c-.515.476-1.03.976-1.535 1.468-.504.489-1.004.992-1.508 1.492-.043.043-.097.098-.156.141l-.57.57c-.125.141-.254.266-.363.395-.309.305-.618.613-.922.934.125-.153.277-.305.418-.446-14.43 14.024-34.125 22.656-55.844 22.656C35.898 457.773 0 421.88 0 377.613a80.05 80.05 0 0 1 3.547-23.633c.21-.699.433-1.394.672-2.082L45.004 225.66c.266-.851.531-1.703.808-2.558.114-.364.239-.727.364-1.086.265-.797.547-1.578.84-2.375.054-.153.113-.32.183-.489.363-.98.738-1.957 1.145-2.933 0-.016 0-.028.011-.043.336-.852.7-1.703 1.079-2.555.082-.21.168-.422.261-.629a87.36 87.36 0 0 1 1.317-2.863c.933-2 1.941-3.969 3.015-5.895.532-.964 1.075-1.914 1.633-2.863 19.555-33.328 55.774-55.703 97.23-55.703h206.192c41.457 0 77.676 22.375 97.227 55.703.562.95 1.105 1.899 1.636 2.863a92.978 92.978 0 0 1 3.016 5.895c.45.934.894 1.898 1.312 2.863.141.293.266.598.38.89.32.7.613 1.415.894 2.126.098.21.18.418.25.64.351.825.672 1.665.98 2.5.793 2.141 1.52 4.317 2.192 6.512l5.644 17.488 34.723 107.454c.043.125.086.238.125.363l.043.11 1.16 3.605c.023.082.055.168.082.265zm0 0" data-original="url(#i)" class=""></path><path fill="url(#j)" d="M196.734 395.508c-.39.137-.78.293-1.16.445-.207.07-.418.152-.625.25-.031 0-.058.016-.086.016-.406.168-.797.32-1.187.488-.278.098-.543.211-.809.32-.14.043-.281.098-.406.153a22.17 22.17 0 0 0-.977.406c-.53.21-1.047.434-1.55.656-.18.086-.364.156-.559.238-.168.06-.32.125-.477.196-.753.336-1.52.672-2.277 1.023-.906.403-1.828.824-2.734 1.27-.043.011-.086.043-.125.054-.2.086-.407.184-.602.293-.125.043-.25.114-.39.184 0 0-.016.012-.016 0-.531.25-1.063.516-1.594.797-.168.07-.332.152-.5.234-.265.125-.531.266-.797.406l-1.133.586c-.082.043-.18.098-.265.141a139.314 139.314 0 0 0-5.403 2.934c-.656.363-1.328.754-1.984 1.144-.195.113-.406.238-.601.352a80.61 80.61 0 0 0-2.18 1.312c-.152.082-.293.18-.434.266-.07.039-.136.082-.195.11-.152.097-.305.195-.473.292-.644.406-1.285.813-1.93 1.23-1.55.977-3.07 1.997-4.577 3.06a92.907 92.907 0 0 0-2.461 1.718c-.11.082-.223.152-.336.234-.391.282-.782.559-1.16.852-.891.645-1.774 1.3-2.653 1.973-.012.011-.027.011-.027.027a145.272 145.272 0 0 0-3.2 2.512c-.18.129-.347.28-.53.422a132.495 132.495 0 0 0-3.087 2.566c-.808.687-1.605 1.371-2.402 2.082-.434.379-.867.77-1.3 1.16-.962.867-1.927 1.746-2.876 2.653-.824.769-1.648 1.566-2.46 2.347-.055.07-.126.14-.196.211l-.543.543c-.46.45-.91.91-1.355 1.371l-.086.082c-14.426 14.024-34.121 22.656-55.84 22.656C35.898 457.773 0 421.88 0 377.613a80.05 80.05 0 0 1 3.547-23.633c.21-.699.433-1.394.672-2.082L45.004 225.66c.266-.851.531-1.703.809-2.558.113-.364.238-.727.363-1.086.265-.797.547-1.578.84-2.375.054-.153.113-.32.183-.489.364-.98.739-1.957 1.145-2.933 0-.016 0-.028.011-.043.336-.852.7-1.703 1.079-2.555.082-.21.168-.422.261-.629a87.36 87.36 0 0 1 1.317-2.863 108.55 108.55 0 0 1 4.648-8.758c-5.765 12.781-8.98 26.957-8.98 41.887 0 20.672 6.16 39.894 16.75 55.941 16.828 25.547 44.875 43.047 77.129 45.52 1.117.086 2.234.14 3.363.199 1.496.07 3.004.098 4.512.098 1.648 0 3.296-.043 4.93-.13a87.678 87.678 0 0 0 6.105-.488c1.676-.168 3.34-.39 4.988-.668a100.48 100.48 0 0 0 10.754-2.308zm0 0" data-original="url(#j)" class=""></path><path fill="url(#k)" d="M473.992 445.79a75.675 75.675 0 0 1-9.008 4.82c-.78.363-1.578.71-2.386 1.046-9.473 3.938-19.864 6.117-30.774 6.117-22.066 0-42.054-8.91-56.539-23.34l-.14-.14c-.016-.012-.028-.027-.043-.04l-.586-.589a198.461 198.461 0 0 0-1.594-1.562c-.527-.532-1.074-1.036-1.606-1.536-.472-.46-.96-.906-1.437-1.34a37.92 37.92 0 0 0-.938-.867 10.582 10.582 0 0 0-.5-.449c-.433-.39-.867-.765-1.3-1.156a99.529 99.529 0 0 0-2.403-2.082 111.146 111.146 0 0 0-2.808-2.336c-.125-.11-.278-.223-.418-.348-.028-.027-.055-.043-.07-.054 0 0-.012-.016-.028-.032-.027-.011-.043-.027-.055-.039-.28-.226-.547-.433-.812-.644-.07-.055-.14-.11-.211-.168-.57-.461-1.145-.906-1.715-1.34-.223-.195-.46-.363-.687-.547 0 0 0 .016-.012 0-.113-.082-.223-.168-.336-.25-.086-.07-.152-.125-.238-.18-.473-.379-.961-.73-1.453-1.09a9.094 9.094 0 0 0-.657-.476 31.466 31.466 0 0 0-1.156-.852c-.113-.082-.227-.168-.336-.238-.531-.375-1.062-.754-1.594-1.129-.265-.183-.515-.363-.78-.531a.513.513 0 0 0-.185-.125l-.292-.211a166.67 166.67 0 0 0-3.922-2.613c-.336-.223-.672-.434-1.02-.656-.39-.25-.785-.489-1.176-.739h-.011v-.015a6.266 6.266 0 0 1-.461-.278c-.325-.199-.645-.394-.965-.586a133.97 133.97 0 0 0-2.922-1.746c-.04-.031-.082-.043-.125-.07-.082-.043-.18-.113-.293-.168-.168-.098-.348-.195-.516-.293-1.09-.629-2.164-1.23-3.254-1.832h-.015a102.003 102.003 0 0 0-3.297-1.73c-.64-.336-1.285-.657-1.926-.981-.547-.277-1.105-.543-1.648-.809-.043-.027-.082-.054-.125-.07 0 .016-.016 0-.016 0-.418-.21-.824-.406-1.242-.601-.348-.168-.7-.32-1.035-.489-.684-.304-1.356-.613-2.04-.922a13.979 13.979 0 0 0-.933-.418c-.293-.14-.586-.265-.879-.39-.195-.082-.379-.168-.574-.25a46.909 46.909 0 0 1-.867-.364c-.14-.058-.278-.113-.403-.167h-.015c-.07-.043-.14-.07-.211-.098-.32-.14-.64-.266-.961-.39a8.66 8.66 0 0 0-.531-.227 13.455 13.455 0 0 0-.715-.278c-.473-.195-.95-.39-1.426-.574-.293-.11-.586-.238-.89-.348a2.257 2.257 0 0 1-.254-.097c-.32-.125-.657-.254-.989-.38l21.524-54.081c3.504.95 7.093 1.73 10.754 2.305.097.027.195.043.293.043 1.55.265 3.113.46 4.695.628 1.047.125 2.094.223 3.14.305.993.07 1.985.14 2.989.184.222.011.433.027.656.027 1.41.07 2.82.098 4.246.098 1.512 0 3.02-.028 4.512-.098 1.594-.07 3.172-.18 4.75-.32 31.664-2.852 59.152-20.227 75.746-45.395 10.586-16.05 16.746-35.27 16.746-55.941 0-2.598-.098-5.184-.293-7.727a101.351 101.351 0 0 0-8.687-34.164c.558.95 1.105 1.903 1.636 2.863a114.531 114.531 0 0 1 4.328 8.758c.141.293.266.602.38.895.32.699.613 1.41.89 2.12.098.212.184.423.254.645.348.825.672 1.665.976 2.5a115.707 115.707 0 0 1 2.196 6.508l5.64 17.489 34.727 107.453c.039.125.082.238.125.363l1.2 3.715c.026.086.058.168.085.265 2.121 7.18 3.254 14.793 3.254 22.672 0 28.801-15.2 54.055-38.008 68.176zm0 0" data-original="url(#k)"></path><path fill="url(#l)" d="M508.746 354.945A79.897 79.897 0 0 1 512 377.613c0 28.801-15.2 54.055-38.008 68.176a75.675 75.675 0 0 1-9.008 4.82c-.78.364-1.578.711-2.386 1.047L357.78 346.844l-2.136-2.137-30.63-30.633-12.585-12.586c-.028-.027-.07-.054-.098-.097a78.598 78.598 0 0 1-4.371-4.164 73.066 73.066 0 0 1-4.04-4.48 78.256 78.256 0 0 1-3.616-4.68.329.329 0 0 1-.07-.114 75.935 75.935 0 0 1-3.758-5.851 65.836 65.836 0 0 1-1.547-2.766c-.309-.602-.618-1.203-.922-1.816-.281-.547-.547-1.118-.813-1.676-.18-.395-.363-.785-.53-1.176a60.903 60.903 0 0 1-.56-1.285c-.21-.473-.402-.961-.601-1.453a76.343 76.343 0 0 1-2.637-7.793 95.52 95.52 0 0 1-.531-2.012 84.79 84.79 0 0 1-.742-3.281 48.18 48.18 0 0 1-.364-1.903c-.136-.722-.25-1.464-.363-2.207a28.403 28.403 0 0 1-.207-1.562 75.13 75.13 0 0 1-.644-9.93c0-42.77 34.668-77.437 77.437-77.437.922 0 1.828.011 2.738.054.532.016 1.059.028 1.579.07.668.028 1.34.071 2.011.126 1.188.097 2.387.226 3.559.379.547.07 1.078.14 1.61.222.222.028.445.059.655.098.391.059.782.125 1.16.195 1.298.227 2.583.477 3.852.77.574.125 1.16.265 1.735.418 1.34.336 2.668.699 3.98 1.101.043.016.098.032.152.043 1.215.39 2.418.797 3.59 1.23.14.044.281.098.406.153.56.211 1.118.418 1.665.645.64.25 1.27.5 1.898.78.586.25 1.172.516 1.758.782.086.027.168.07.254.113.554.262 1.129.532 1.675.809.657.309 1.297.64 1.942.992.558.293 1.101.602 1.648.906a76.57 76.57 0 0 1 1.758 1.02c.574.336 1.16.7 1.719 1.062a74.639 74.639 0 0 1 6.594 4.665 77.956 77.956 0 0 1 10.21 9.68l.212.21L465 235.531l7.613 7.614 34.723 107.453c.043.125.086.238.125.363l1.2 3.715c.027.086.058.172.085.27zm0 0" data-original="url(#l)" class=""></path><path fill="url(#m)" d="M440.898 243.25c0 42.766-34.671 77.438-77.441 77.438-42.766 0-77.437-34.672-77.437-77.438 0-42.77 34.671-77.441 77.437-77.441 42.77 0 77.441 34.671 77.441 77.441zm0 0" data-original="url(#m)" class=""></path><path fill="url(#n)" d="m371.527 357.152 93.457 93.457c-.78.364-1.578.711-2.386 1.047-9.47 3.938-19.864 6.117-30.77 6.117-22.07 0-42.058-8.91-56.543-23.34.348.352.7.715 1.047 1.075-.39-.403-.797-.809-1.187-1.215l-.04-.04c-.195-.198-.394-.394-.585-.589a170.972 170.972 0 0 0-4.641-4.441c-.445-.403-.879-.809-1.324-1.2-.043-.043-.07-.086-.114-.113-.433-.39-.867-.77-1.296-1.16-.797-.7-1.594-1.395-2.403-2.082a110.966 110.966 0 0 0-2.808-2.332c-.125-.11-.282-.223-.418-.348-.032-.027-.059-.043-.07-.058 0 0-.016-.012-.032-.028-.012 0-.027-.011-.055-.043-.277-.222-.543-.43-.808-.64-.07-.055-.14-.114-.211-.168a73.412 73.412 0 0 0-1.719-1.34c-.223-.195-.46-.363-.684-.547 0 0 0 .016-.015 0-.11-.086-.223-.168-.336-.25a3.203 3.203 0 0 0-.234-.184c-.477-.375-.965-.726-1.454-1.09a13.33 13.33 0 0 0-.656-.472c-.379-.293-.77-.574-1.16-.852a4.438 4.438 0 0 0-.336-.238l-1.59-1.133c-.265-.18-.52-.363-.785-.53-.152-.126-.305-.224-.46-.333h-.013c-1.3-.894-2.613-1.762-3.925-2.613-.63-.406-1.258-.813-1.883-1.188a1.431 1.431 0 0 0-.324-.195v-.016h-.012a11.23 11.23 0 0 0-.45-.293l-.96-.586c-.492-.308-.98-.601-1.48-.878a32.01 32.01 0 0 0-1.442-.868c-.043-.027-.082-.043-.125-.07-.082-.043-.18-.11-.293-.168-.168-.098-.348-.195-.516-.293a151.387 151.387 0 0 0-3.199-1.789c-.027-.012-.043-.027-.07-.04a146.977 146.977 0 0 0-3.297-1.733c-.64-.336-1.285-.657-1.926-.977-.547-.281-1.105-.547-1.648-.809a.455.455 0 0 0-.125-.07c0 .012-.016 0-.016 0-.418-.21-.824-.406-1.242-.601a.185.185 0 0 0-.086-.028c-.992-.476-1.996-.937-2.988-1.383-.586-.265-1.16-.52-1.746-.77-.043-.026-.07-.042-.11-.042-.015-.027-.043-.027-.058-.027-.446-.211-.895-.391-1.34-.586-.14-.055-.282-.11-.407-.168-.07-.028-.136-.07-.207-.098h-.015c-.32-.137-.64-.266-.965-.39a8.98 8.98 0 0 0-.531-.223c-.239-.098-.473-.196-.711-.282-.477-.195-.95-.39-1.426-.57-.293-.113-.586-.238-.895-.351a1.83 1.83 0 0 1-.25-.098c-.867-.32-1.73-.656-2.613-.961-.137-.059-.293-.113-.445-.168-1.117-.406-2.25-.797-3.379-1.187-.461-.157-.922-.31-1.383-.461-.824-.266-1.637-.52-2.46-.77l-1.634-.504c-.851-.25-1.687-.5-2.543-.738-.195-.055-.375-.113-.558-.152a69.737 69.737 0 0 0-2.43-.645h-.015c-.028-.027-.055-.027-.082-.027-.016-.016-.028-.016-.043-.016-.852-.238-1.704-.445-2.57-.656a34.032 34.032 0 0 0-1.606-.375 66.074 66.074 0 0 0-2.278-.52 63.565 63.565 0 0 0-2.175-.46c-.532-.126-1.079-.223-1.61-.337-.922-.18-1.855-.347-2.777-.515-.45-.07-.895-.153-1.344-.239a150.46 150.46 0 0 0-3.45-.543 153.54 153.54 0 0 0-6.214-.796c-.781-.098-1.566-.168-2.332-.25-1.187-.114-2.39-.211-3.578-.293a14.62 14.62 0 0 0-1.09-.086 94.238 94.238 0 0 0-3.324-.196 113.57 113.57 0 0 0-3.672-.14c-.25-.012-.488-.012-.727-.012-1.285-.043-2.57-.059-3.855-.059h-.098c-.836 0-1.687 0-2.527.032h-.598c-.406.011-.797.011-1.203.027-.125 0-.265.012-.39.012-.086 0-.168 0-.239.015-.797.016-1.593.043-2.39.082-.332.016-.657.032-.977.043-.277.016-.547.028-.809.059-.183 0-.363 0-.546.027-.7.028-1.41.07-2.11.125-.07 0-.152.012-.222.012-.125.016-.25.016-.38.031h-.011c-.336.028-.688.055-1.023.082-.782.055-1.563.125-2.333.196-.32.027-.628.054-.933.097-.645.055-1.274.125-1.902.211-.012-.015-.012 0-.012 0h-.016c-.097 0-.195.012-.293.028-.375.027-.754.082-1.117.125-1.074.125-2.152.265-3.21.418-.114.015-.227.027-.337.043-.082 0-.152.015-.238.027-.184.027-.379.058-.559.086-.015 0-.043 0-.058.012-.446.058-.89.125-1.325.195-.351.058-.699.097-1.05.168-.403.058-.809.125-1.215.195-1.047.168-2.082.363-3.129.559-.543.097-1.09.21-1.621.308-.434.082-.852.168-1.27.266a.41.41 0 0 0-.183.043c-.207.027-.403.07-.614.125-.238.043-.476.098-.699.14-.21.04-.418.083-.613.137h-.016c-.207.043-.43.098-.629.14-.097.016-.195.044-.277.056-.348.085-.684.156-1.02.238-.238.058-.488.113-.726.168-.113.027-.227.058-.336.086-.406.093-.809.195-1.215.293-.097.027-.195.039-.293.07-.504.125-1.008.25-1.508.39-.125.028-.265.055-.394.098a2.996 2.996 0 0 0-.18.043v.012h-.015c-1.438.363-2.864.77-4.286 1.176-.168.054-.336.097-.503.152-.06.016-.114.027-.168.043-.141.043-.293.082-.434.137-.152.043-.32.086-.473.14-.77.223-1.523.461-2.293.715-.406.11-.808.25-1.215.39a86.89 86.89 0 0 0-2.527.837c-.254.086-.488.168-.715.238-.207.07-.402.14-.597.211-.2.07-.395.14-.586.223-.547.183-1.09.379-1.637.586-.195.07-.379.14-.57.21a9.363 9.363 0 0 0-.52.196c-.195.07-.39.14-.586.238a74.25 74.25 0 0 0-2.402.922c-.277.098-.543.211-.809.32l-35.676-35.672-3.21-3.214-56.653-56.653c-.027-.027-.07-.054-.097-.097a65.707 65.707 0 0 1-2.907-2.711h-.015c-.012-.012-.028-.012-.028-.028-.488-.472-.96-.949-1.422-1.425a71.813 71.813 0 0 1-4.039-4.48 78.256 78.256 0 0 1-3.617-4.68.329.329 0 0 1-.07-.114 78.707 78.707 0 0 1-5.309-8.617c-.308-.602-.613-1.203-.922-1.816-.277-.543-.543-1.118-.808-1.676-.184-.39-.363-.781-.531-1.172a51.248 51.248 0 0 1-.559-1.285c-.21-.477-.406-.965-.602-1.453a78.967 78.967 0 0 1-2.011-5.66 60.505 60.505 0 0 1-.63-2.137c-.179-.668-.362-1.34-.53-2.012a92.695 92.695 0 0 1-.739-3.281c-.14-.63-.25-1.258-.363-1.899a50.945 50.945 0 0 1-.363-2.207 29.056 29.056 0 0 1-.211-1.566 75.089 75.089 0 0 1-.64-9.93c0-42.77 34.667-77.437 77.433-77.437.922 0 1.832.015 2.738.054.531.016 1.063.032 1.578.07.672.032 1.344.071 2.012.13a71.9 71.9 0 0 1 3.562.375c.543.07 1.075.14 1.606.222.222.032.45.059.656.098.39.059.781.129 1.16.195 1.301.227 2.586.477 3.856.77.57.125 1.16.265 1.73.418 1.344.336 2.668.699 3.98 1.105.044.012.098.028.157.043 1.215.39 2.414.793 3.59 1.227.136.043.277.097.402.152.559.211 1.117.422 1.664.645.64.25 1.27.504 1.899.78.586.255 1.175.516 1.761.782.082.031.168.07.25.113.559.266 1.133.532 1.676.809.656.309 1.3.645 1.941.992.563.293 1.106.602 1.649.906.601.336 1.176.672 1.762 1.024.57.332 1.16.695 1.718 1.058a74.622 74.622 0 0 1 6.59 4.668 77.697 77.697 0 0 1 10.211 9.68l.211.207 89.77 89.774 28.144 28.144 4.262 4.258 29.945 29.95.461.46zm0 0" data-original="url(#n)" class=""></path><path fill="url(#o)" d="M225.797 243.25c0 42.766-34.672 77.438-77.442 77.438s-77.437-34.672-77.437-77.438c0-42.77 34.668-77.441 77.437-77.441s77.442 34.671 77.442 77.441zm0 0" data-original="url(#o)" class=""></path><path fill="url(#p)" d="m223.004 261.617-65.04-65.012a11.711 11.711 0 0 0-9.066-4.289c-6.476 0-11.73 5.25-11.73 11.727v28.016h-28.012c-6.476 0-11.726 5.25-11.726 11.726 0 3.653 1.672 6.914 4.289 9.067l64.996 65.043c27.773-6.657 49.625-28.504 56.289-56.278zm0 0" data-original="url(#p)" class=""></path><path fill="url(#q)" d="M188.637 232.059H160.62v-28.016c0-6.477-5.25-11.727-11.726-11.727-6.477 0-11.727 5.25-11.727 11.727v28.016h-28.012c-6.476 0-11.73 5.25-11.73 11.726 0 6.477 5.254 11.727 11.73 11.727h28.012v28.015c0 6.473 5.25 11.727 11.727 11.727 6.476 0 11.726-5.254 11.726-11.727v-28.015h28.016c6.476 0 11.726-5.25 11.726-11.727 0-6.476-5.25-11.726-11.726-11.726zm0 0" data-original="url(#q)" class=""></path><path fill="url(#r)" d="M473.992 445.79a75.675 75.675 0 0 1-9.008 4.82c-.78.363-1.578.71-2.386 1.046-9.473 3.938-19.864 6.117-30.774 6.117-22.066 0-42.054-8.91-56.539-23.34.348.352.7.715 1.047 1.075-.39-.403-.797-.809-1.187-1.215l-.043-.04-.586-.589a170.755 170.755 0 0 0-4.637-4.441c-.445-.403-.879-.809-1.328-1.2-.04-.043-.07-.086-.11-.113-.433-.39-.867-.77-1.3-1.16-.793-.7-1.59-1.395-2.403-2.082a118.178 118.178 0 0 0-2.804-2.332c-.13-.11-.282-.223-.422-.348-.028-.027-.055-.043-.07-.058l-.028-.028c-.012 0-.027-.011-.055-.043-.28-.222-.547-.43-.812-.64-.067-.055-.137-.114-.207-.168a82.61 82.61 0 0 0-1.719-1.34 1.83 1.83 0 0 0-.21-.156c-.153-.137-.306-.25-.474-.39 0 0 0 .015-.015 0-.11-.083-.223-.169-.336-.25a2.346 2.346 0 0 0-.234-.18c-.493-.364-.965-.731-1.454-1.09a11.23 11.23 0 0 0-.656-.477c-.379-.293-.77-.574-1.16-.852-.113-.082-.223-.168-.336-.238-.531-.375-1.062-.754-1.594-1.129-.265-.183-.515-.363-.78-.531-.153-.125-.31-.227-.462-.336h-.012c-1.3-.894-2.613-1.762-3.925-2.613a71.588 71.588 0 0 0-1.887-1.188 1.331 1.331 0 0 0-.32-.195v-.016h-.016c-.137-.097-.293-.195-.445-.293-.32-.195-.64-.39-.965-.586a35.132 35.132 0 0 0-1.48-.878 51.544 51.544 0 0 0-1.563-.934c-.082-.043-.184-.113-.293-.168-.168-.098-.352-.195-.52-.293a128.093 128.093 0 0 0-3.195-1.79c-.031-.015-.043-.026-.07-.042a155.821 155.821 0 0 0-3.297-1.73c-.645-.336-1.285-.657-1.93-.981-.543-.277-1.101-.543-1.648-.809a.567.567 0 0 0-.125-.07c0 .016-.012 0-.012 0-.418-.21-.824-.406-1.242-.601-.031-.012-.059-.028-.086-.028-.992-.472-1.996-.933-2.988-1.383a84.674 84.674 0 0 0-1.746-.765c-.043-.031-.07-.043-.114-.043-.011-.028-.039-.028-.054-.028-.446-.21-.895-.394-1.34-.585-.14-.06-.282-.114-.407-.168-.07-.032-.14-.07-.21-.098h-.012c-.32-.14-.645-.266-.965-.39a6.993 6.993 0 0 0-.531-.227c-.239-.098-.473-.196-.711-.278a83.68 83.68 0 0 0-1.426-.574c-.293-.11-.586-.238-.895-.348a2.202 2.202 0 0 1-.25-.097c-.867-.32-1.73-.656-2.613-.965-.137-.055-.293-.11-.445-.168-1.117-.402-2.25-.797-3.379-1.188-.461-.152-.922-.304-1.383-.46-.824-.266-1.637-.516-2.46-.766l-1.634-.504a231.369 231.369 0 0 0-3.101-.895 79.605 79.605 0 0 0-2.43-.64h-.015c-.028-.031-.055-.031-.082-.031-.016-.012-.028-.012-.043-.012-.852-.238-1.704-.445-2.57-.656a34.087 34.087 0 0 0-1.606-.38c-.754-.179-1.524-.363-2.278-.515a61.848 61.848 0 0 0-2.18-.46c-.53-.126-1.073-.223-1.605-.337-.922-.183-1.855-.347-2.781-.515-.445-.07-.89-.157-1.34-.239a150.538 150.538 0 0 0-3.45-.547 168.89 168.89 0 0 0-6.214-.796c-.785-.098-1.566-.168-2.336-.25a157.31 157.31 0 0 0-3.574-.293c-.363-.043-.727-.07-1.09-.082a78.612 78.612 0 0 0-3.324-.196c-1.215-.07-2.445-.113-3.672-.14-.25-.016-.488-.016-.727-.016-1.285-.039-2.57-.055-3.855-.055h-.098c-.851 0-1.687.016-2.527.028h-.602c-.304.015-.629.015-.933.027h-.266c-.125 0-.265.016-.39.016-.45.015-.895.027-1.344.043-.43.011-.852.027-1.285.054-.332.016-.657.028-.977.043-.168 0-.336.012-.504.028-.277.015-.57.027-.851.054-.11 0-.239 0-.348.016-.586.027-1.176.07-1.762.113-.07 0-.152.012-.222.012-.125 0-.25.016-.38.027h-.011c-.352.032-.688.059-1.023.086-.696.043-1.395.11-2.079.168-.086.012-.168.012-.254.028-.32.027-.625.054-.933.097-.645.055-1.27.125-1.899.196-.015 0-.015.011-.015.011h-.016c-.094 0-.195.016-.293.031-.375.028-.754.083-1.117.125-1.074.125-2.148.266-3.21.418-.114 0-.224.028-.337.043-.082 0-.152.012-.238.028l-.559.082c-.015 0-.043 0-.054.015-.45.055-.895.125-1.329.196h-.027c-.336.054-.687.113-1.02.168-.406.054-.812.125-1.218.195-1.047.168-2.078.363-3.129.559-.543.097-1.09.21-1.621.308-.43.082-.852.168-1.27.266a.38.38 0 0 0-.18.039c-.21.031-.421.07-.617.129-.238.039-.472.097-.699.137-.207.042-.418.097-.613.14h-.012c-.21.043-.433.098-.629.14-.097.012-.195.044-.28.055-.349.086-.685.157-1.02.239-.25.054-.489.113-.727.168l-.336.082-1.215.293c-.097.03-.195.043-.293.07-.504.129-1.004.254-1.508.395-.125.027-.265.054-.39.097l-.184.04-.012.015c-1.44.363-2.863.77-4.289 1.172-.168.058-.336.097-.503.156-.196.055-.391.11-.586.18 0 0 0-.012-.016 0-.152.043-.32.086-.473.14-.77.223-1.523.461-2.293.711-.402.114-.808.254-1.215.395-.851.262-1.687.543-2.527.836-.25.086-.488.168-.71.238-.212.07-.407.14-.602.21-.196.071-.391.142-.586.224-.547.183-1.106.379-1.637.586-.195.07-.375.14-.57.21a6.338 6.338 0 0 0-.516.196c-.2.07-.394.14-.59.238-.375.125-.754.266-1.129.418-.433.168-.851.336-1.273.504-.277.098-.543.207-.809.32l-.71.293c-.743.293-1.485.602-2.223.922-.18.082-.38.152-.559.238-.14.07-.293.125-.434.196h-.011c-.086.027-.156.07-.239.11-.378.155-.742.323-1.117.491-.32.137-.644.278-.949.418-.922.418-1.832.836-2.738 1.27-.254.113-.488.238-.727.351-.125.055-.25.125-.379.196-.32.136-.629.293-.933.445-.239.113-.461.223-.688.336-.168.07-.332.152-.488.25a.386.386 0 0 0-.152.082c-.602.281-1.204.59-1.79.894-1.914.98-3.796 2.012-5.671 3.075-.657.379-1.325.754-1.985 1.144-.195.113-.402.238-.597.352-.52.304-1.051.629-1.567.949a.3.3 0 0 0-.097.055c-.18.097-.348.21-.516.308-.152.082-.293.184-.434.266-.07.043-.136.082-.195.11-.152.113-.305.195-.46.308-.657.39-1.298.797-1.942 1.215l-8.309-8.309c-.027-.031-.058-.058-.086-.086-.152-.14-.305-.277-.46-.433a7.581 7.581 0 0 1-.5-.461 23.165 23.165 0 0 1-.95-.907c-.309-.308-.617-.613-.922-.933-.324-.324-.629-.656-.937-.992a56.6 56.6 0 0 1-2.5-2.977 50.977 50.977 0 0 1-2.305-3.2c-.238-.378-.477-.737-.715-1.116a50.464 50.464 0 0 1-1.969-3.438 54.007 54.007 0 0 1-2.207-4.832l-.011-.012a70.429 70.429 0 0 1-.895-2.5c-.156-.421-.281-.855-.422-1.285-.125-.422-.25-.855-.375-1.285-.113-.434-.238-.883-.336-1.316-.113-.43-.222-.88-.32-1.325v-.015a33.887 33.887 0 0 1-.266-1.313c-.07-.293-.113-.586-.168-.894a19.81 19.81 0 0 1-.14-.84c-.055-.32-.098-.656-.137-.977-.07-.445-.129-.906-.168-1.367a6.64 6.64 0 0 1-.07-.644c-.032-.336-.07-.684-.086-1.02-.07-.836-.11-1.676-.137-2.512-.016-.46-.016-.937-.016-1.41 0-6.23 1.118-12.21 3.157-17.726.293-.77.586-1.524.906-2.262a50.85 50.85 0 0 1 4.836-8.816c9.187-13.395 24.61-22.18 42.082-22.18.476 0 .95 0 1.41.016.84.027 1.691.07 2.516.136.336.031.683.059 1.02.086.222.016.433.043.64.07.46.043.922.098 1.371.168.32.04.656.082.977.137.28.043.558.086.84.14.304.06.6.098.894.169.32.054.625.125.95.183.292.07.597.137.89.207.281.059.547.125.812.196.293.07.586.14.867.226.262.055.516.125.766.207.754.211 1.512.434 2.25.7.266.085.531.167.781.265a47.609 47.609 0 0 1 5.39 2.262c.392.2.782.394 1.177.59a46.817 46.817 0 0 1 3.433 1.98c.38.227.754.461 1.117.715.477.305.954.629 1.415.965.597.43 1.199.879 1.785 1.34.39.277.754.586 1.133.894.628.516 1.242 1.063 1.843 1.59l.043.043a83.21 83.21 0 0 1 1.883 1.816c.309.32.617.63.91.95.305.324.598.644.895.965.043.027.054.054.082.082l40.312 40.312c.516.461 1.004.922 1.508 1.41 0-.027-.016-.043-.016-.07a67.302 67.302 0 0 1-.222-1.649 44.24 44.24 0 0 1-.223-2.402c-.043-.547-.07-1.09-.098-1.633v-.14a46.13 46.13 0 0 1-.042-1.942c0-28.16 22.824-50.984 50.98-50.984.879 0 1.762.031 2.629.07.418.016.824.043 1.242.07.012.016.043.016.055.016l1.02.082c.226.016.433.043.644.07.46.043.906.098 1.367.168.266.028.531.07.797.11.64.097 1.285.21 1.914.336.336.058.684.125 1.02.21.542.114 1.09.239 1.632.38.336.082.672.168 1.008.261.977.254 1.926.532 2.875.868.336.113.688.226 1.024.351.5.168 1.003.363 1.492.559.754.308 1.523.629 2.261.965.07.027.141.054.2.082.402.195.793.378 1.187.57.39.2.793.394 1.188.59.808.418 1.59.851 2.37 1.324.368.226.716.434 1.063.656.38.227.742.461 1.117.715.477.305.95.629 1.41.965.602.43 1.204.879 1.79 1.34.39.277.754.586 1.132.894.63.531 1.243 1.063 1.844 1.59.012.016.028.031.04.043a75.92 75.92 0 0 1 1.886 1.816c.309.32.613.63.906.95.309.324.602.644.895.965.043.027.054.054.082.082zm0 0" data-original="url(#r)" class=""></path><path fill="url(#s)" d="M241.824 364.902c0 28.157-22.824 50.98-50.98 50.98s-50.985-22.823-50.985-50.98 22.828-50.984 50.985-50.984 50.98 22.828 50.98 50.984zm0 0" data-original="url(#s)" class=""></path><path fill="url(#t)" d="M228.324 364.902c0 20.7-16.781 37.48-37.48 37.48s-37.48-16.78-37.48-37.48c0-20.699 16.78-37.48 37.48-37.48s37.48 16.781 37.48 37.48zm0 0" data-original="url(#t)"></path><path fill="url(#u)" d="m241.727 367.969-26.297-26.297c-6.168-6.527-14.899-10.606-24.586-10.606-18.688 0-33.836 15.149-33.836 33.836 0 9.688 4.082 18.418 10.605 24.586l26.297 26.297c25.711-1.527 46.29-22.105 47.817-47.816zm0 0" data-original="url(#u)"></path><path fill="url(#v)" d="M224.676 364.902c0 18.684-15.149 33.832-33.832 33.832-18.688 0-33.836-15.148-33.836-33.832 0-18.687 15.148-33.836 33.836-33.836 18.683 0 33.832 15.149 33.832 33.836zm0 0" data-original="url(#v)" class=""></path><path fill="url(#w)" d="M372.113 364.902c0 28.157-22.828 50.98-50.984 50.98s-50.98-22.823-50.98-50.98 22.824-50.984 50.98-50.984 50.984 22.828 50.984 50.984zm0 0" data-original="url(#w)" class=""></path><path fill="url(#x)" d="M358.61 364.902c0 20.7-16.782 37.48-37.481 37.48-20.7 0-37.48-16.78-37.48-37.48 0-20.699 16.78-37.48 37.48-37.48 20.7 0 37.48 16.781 37.48 37.48zm0 0" data-original="url(#x)"></path><path fill="url(#y)" d="m372.012 367.969-26.297-26.297c-6.168-6.527-14.899-10.606-24.586-10.606-18.684 0-33.832 15.149-33.832 33.836 0 9.688 4.078 18.418 10.605 24.586l26.293 26.297c25.711-1.527 46.29-22.105 47.817-47.816zm0 0" data-original="url(#y)"></path><path fill="url(#z)" d="M354.965 364.902c0 18.684-15.149 33.832-33.836 33.832s-33.832-15.148-33.832-33.832c0-18.687 15.144-33.836 33.832-33.836s33.836 15.149 33.836 33.836zm0 0" data-original="url(#z)"></path><path fill="url(#A)" d="M363.457 179.637c-.66 0-1.34.039-2.023.11a4.962 4.962 0 0 0-.348.05l-.14.023c-.505.063-1.005.133-1.493.239-.105.023-.207.05-.308.078l-.137.035c-.5.117-.996.246-1.477.402-.082.024-.16.055-.332.121-.515.176-1.023.368-1.52.586l-.206.098a18.69 18.69 0 0 0-1.653.851c-.539.31-1.062.645-1.457.938l-.12.078a19.171 19.171 0 0 0-2.864 2.512c-7.317 7.312-43.559 43.543-44.594 44.62-3.355 3.599-5.203 8.267-5.203 13.138 0 10.656 8.668 19.324 19.32 19.324 5.395 0 10.407-2.184 14.078-6.117l43.653-43.657c3.965-3.703 6.148-8.71 6.148-14.105 0-10.656-8.668-19.324-19.324-19.324zm0 0" data-original="url(#A)"></path><path fill="url(#B)" d="M407.813 223.992c-.66 0-1.34.035-2.024.11a4.962 4.962 0 0 0-.348.05l-.14.02a18.56 18.56 0 0 0-1.492.242 3.96 3.96 0 0 0-.309.078l-.137.035c-.5.118-.996.246-1.476.399-.082.027-.16.058-.332.125-.516.176-1.024.367-1.52.586l-.207.097a18.69 18.69 0 0 0-1.652.852c-.54.309-1.063.644-1.457.937l-.121.079a19.171 19.171 0 0 0-2.864 2.511c-7.316 7.313-43.558 43.543-44.593 44.621-3.356 3.598-5.207 8.266-5.207 13.137 0 10.656 8.668 19.324 19.324 19.324 5.394 0 10.406-2.183 14.078-6.12l43.652-43.653c3.961-3.703 6.149-8.711 6.149-14.11 0-10.652-8.668-19.32-19.324-19.32zm0 0" data-original="url(#B)"></path><path fill="url(#C)" d="M378.39 287.54c0 8.245-6.683 14.929-14.933 14.929-8.246 0-14.93-6.684-14.93-14.93 0-8.25 6.684-14.934 14.93-14.934 8.25 0 14.934 6.684 14.934 14.934zm0 0" data-original="url(#C)"></path><path fill="url(#D)" d="M378.39 198.96c0 8.247-6.683 14.93-14.933 14.93-8.246 0-14.93-6.683-14.93-14.93 0-8.25 6.684-14.933 14.93-14.933 8.25 0 14.934 6.684 14.934 14.934zm0 0" data-original="url(#D)"></path><path fill="url(#E)" d="M334.102 243.25c0 8.246-6.684 14.93-14.934 14.93-8.246 0-14.93-6.684-14.93-14.93 0-8.25 6.684-14.934 14.93-14.934 8.25 0 14.934 6.684 14.934 14.934zm0 0" data-original="url(#E)"></path><path fill="url(#F)" d="M422.95 243.25c0 8.246-6.688 14.93-14.934 14.93s-14.934-6.684-14.934-14.93c0-8.25 6.688-14.934 14.934-14.934s14.933 6.684 14.933 14.934zm0 0" data-original="url(#F)"></path><path fill="url(#G)" d="M242.137 298.91v.91a6.688 6.688 0 0 1-6.688 6.688h-8.324a6.688 6.688 0 0 1-6.688-6.688v-.91a6.69 6.69 0 0 1 6.688-6.691h8.324a6.69 6.69 0 0 1 6.688 6.691zm0 0" data-original="url(#G)"></path><path fill="url(#H)" d="M291.535 298.91v.91a6.688 6.688 0 0 1-6.691 6.688h-8.32a6.685 6.685 0 0 1-6.688-6.688v-.91a6.688 6.688 0 0 1 6.687-6.691h8.32a6.692 6.692 0 0 1 6.692 6.691zm0 0" data-original="url(#H)"></path><path fill="url(#I)" d="M242.668 80.832h26.668v35.332h-26.668zm0 0" data-original="url(#I)"></path><path fill="url(#J)" d="M269.332 40.414c0-17.457-11.129-32.363-26.664-38v51.75h26.664zm0 0" data-original="url(#J)"></path></g></svg>