<?xml version="1.0" encoding="UTF-8" standalone="no"?>
<!DOCTYPE svg PUBLIC "-//W3C//DTD SVG 1.1//EN" "http://www.w3.org/Graphics/SVG/1.1/DTD/svg11.dtd">
<svg width="100%" height="100%" viewBox="0 0 411 73" version="1.1" xmlns="http://www.w3.org/2000/svg" xmlns:xlink="http://www.w3.org/1999/xlink" xml:space="preserve" xmlns:serif="http://www.serif.com/" style="fill-rule:evenodd;clip-rule:evenodd;stroke-linejoin:round;stroke-miterlimit:2;">
    <g transform="matrix(1,0,0,1,-37.9653,-18.9908)">
        <path d="M216.39,67.11L216.39,52.11C216.39,46.45 212.78,42.64 206.97,42.59C203.604,42.372 200.376,44.008 198.56,46.85C196.905,44.092 193.864,42.454 190.65,42.59C187.855,42.455 185.187,43.811 183.65,46.15L183.65,43.15L178.44,43.15L178.44,67.11L183.7,67.11L183.7,53.84C183.7,49.68 186,47.48 189.56,47.48C193.12,47.48 194.77,49.73 194.77,53.79L194.77,67.11L200,67.11L200,53.84C200,49.68 202.4,47.48 205.86,47.48C209.32,47.48 211.12,49.73 211.12,53.79L211.12,67.11L216.39,67.11ZM294.22,43.17L285.71,43.17L285.71,35.91L280.45,35.91L280.45,43.17L275.59,43.17L275.59,47.93L280.45,47.93L280.45,58.84C280.45,64.4 282.6,67.71 288.76,67.71C291.061,67.717 293.317,67.076 295.27,65.86L293.77,61.4C292.372,62.233 290.786,62.697 289.16,62.75C286.56,62.75 285.7,61.15 285.7,58.75L285.7,47.93L294.21,47.93L294.22,43.17ZM338.65,42.57C336.066,42.495 333.639,43.845 332.34,46.08L332.34,43.17L327.18,43.17L327.18,67.11L332.39,67.11L332.39,53.69C332.39,49.69 334.09,47.53 337.5,47.53C338.616,47.514 339.723,47.718 340.76,48.13L342.36,43.22C341.169,42.794 339.915,42.574 338.65,42.57ZM271.48,45.07C268.531,43.318 265.139,42.45 261.71,42.57C255.65,42.57 251.71,45.48 251.71,50.23C251.71,54.14 254.61,56.54 259.97,57.29L262.42,57.64C265.27,58.04 266.63,58.79 266.63,60.14C266.63,61.99 264.73,63.05 261.17,63.05C258.298,63.141 255.479,62.26 253.17,60.55L250.8,64.6C253.833,66.721 257.47,67.812 261.17,67.71C268.08,67.71 272.09,64.45 272.09,59.9C272.09,55.69 268.93,53.49 263.73,52.74L261.28,52.39C259.03,52.09 257.22,51.64 257.22,50.04C257.22,48.29 258.92,47.24 261.78,47.24C264.4,47.279 266.968,47.984 269.24,49.29L271.48,45.07ZM411,42.57C408.416,42.495 405.989,43.845 404.69,46.08L404.69,43.17L399.53,43.17L399.53,67.11L404.74,67.11L404.74,53.69C404.74,49.69 406.44,47.53 409.85,47.53C410.966,47.514 412.073,47.718 413.11,48.13L414.71,43.22C413.519,42.794 412.265,42.574 411,42.57ZM343.91,55.14C343.91,62.4 348.97,67.71 356.68,67.71C359.805,67.865 362.878,66.844 365.29,64.85L362.79,60.64C360.989,62.011 358.793,62.766 356.53,62.79C352.37,62.79 349.32,59.73 349.32,55.13C349.32,50.53 352.38,47.52 356.53,47.47C358.793,47.494 360.989,48.249 362.79,49.62L365.29,45.41C362.878,43.416 359.805,42.395 356.68,42.55C348.97,42.55 343.91,47.86 343.91,55.12L343.91,55.14ZM392.69,67.07L392.69,43.14L387.48,43.14L387.48,46.05C385.679,43.726 382.857,42.416 379.92,42.54C373.21,42.54 367.92,47.8 367.92,55.11C367.92,62.42 373.18,67.68 379.92,67.68C382.857,67.804 385.679,66.494 387.48,64.17L387.48,67.07L392.69,67.07ZM373.31,55.14C373.31,50.93 376.06,47.48 380.57,47.48C384.88,47.48 387.78,50.79 387.78,55.14C387.78,59.49 384.88,62.8 380.57,62.8C376.06,62.8 373.31,59.34 373.31,55.14ZM310.45,42.57C303.45,42.57 298.53,47.68 298.53,55.14C298.53,62.75 303.64,67.71 310.8,67.71C314.374,67.835 317.872,66.638 320.62,64.35L318.07,60.49C316.082,62.081 313.616,62.961 311.07,62.99C307.71,62.99 304.66,61.44 303.91,57.13L321.69,57.13C321.74,56.48 321.79,55.83 321.79,55.13C321.79,47.67 317.13,42.56 310.42,42.56L310.45,42.57ZM310.35,47.23C313.71,47.23 315.86,49.33 316.41,53.04L304,53.04C304.55,49.58 306.65,47.23 310.36,47.23L310.35,47.23ZM441,67.09L441,33.55L435.79,33.55L435.79,46.07C433.989,43.746 431.167,42.436 428.23,42.56C421.52,42.56 416.23,47.82 416.23,55.13C416.23,62.44 421.49,67.7 428.23,67.7C431.167,67.824 433.989,66.514 435.79,64.19L435.79,67.09L441,67.09ZM447.09,64.9C447.296,64.899 447.5,64.94 447.69,65.02C447.873,65.098 448.039,65.21 448.18,65.35C448.32,65.487 448.432,65.65 448.51,65.83C448.672,66.206 448.672,66.634 448.51,67.01C448.432,67.19 448.32,67.352 448.18,67.49C448.039,67.629 447.872,67.741 447.69,67.82C447.5,67.901 447.296,67.942 447.09,67.94C446.468,67.948 445.899,67.58 445.65,67.01C445.489,66.633 445.489,66.207 445.65,65.83C445.806,65.463 446.101,65.172 446.47,65.02C446.673,64.936 446.891,64.895 447.11,64.9L447.09,64.9ZM447.09,67.6C447.248,67.602 447.405,67.572 447.55,67.51C447.688,67.45 447.813,67.366 447.92,67.26C448.38,66.799 448.38,66.041 447.92,65.58C447.814,65.474 447.688,65.389 447.55,65.33C447.404,65.269 447.248,65.238 447.09,65.24C446.929,65.238 446.769,65.268 446.62,65.33C446.183,65.517 445.897,65.949 445.897,66.424C445.897,66.737 446.02,67.037 446.24,67.26C446.349,67.367 446.478,67.452 446.62,67.51C446.775,67.575 446.942,67.605 447.11,67.6L447.09,67.6ZM447.18,65.7C447.33,65.69 447.478,65.732 447.6,65.82C447.7,65.9 447.756,66.022 447.75,66.15C447.754,66.259 447.71,66.365 447.63,66.44C447.538,66.522 447.422,66.571 447.3,66.58L447.76,67.11L447.4,67.11L446.97,66.58L446.83,66.58L446.83,67.11L446.53,67.11L446.53,65.71L447.18,65.7ZM446.83,65.96L446.83,66.34L447.18,66.34C447.242,66.358 447.308,66.358 447.37,66.34C447.416,66.309 447.443,66.256 447.44,66.2C447.443,66.144 447.416,66.091 447.37,66.06C447.308,66.042 447.242,66.042 447.18,66.06L446.83,65.96ZM421.64,55.14C421.64,50.93 424.39,47.48 428.9,47.48C433.21,47.48 436.11,50.79 436.11,55.14C436.11,59.49 433.21,62.8 428.9,62.8C424.39,62.8 421.64,59.34 421.64,55.14ZM245.74,55.14L245.74,43.14L240.53,43.14L240.53,46.05C238.729,43.746 235.922,42.449 233,42.57C226.29,42.57 221,47.83 221,55.14C221,62.45 226.26,67.71 233,67.71C235.937,67.834 238.759,66.524 240.56,64.2L240.56,67.1L245.77,67.1L245.74,55.14ZM226.36,55.14C226.36,50.93 229.11,47.48 233.62,47.48C237.93,47.48 240.83,50.79 240.83,55.14C240.83,59.49 237.93,62.8 233.62,62.8C229.11,62.8 226.36,59.35 226.36,55.14Z" style="fill:rgb(35,31,32);fill-rule:nonzero;"/>
        <g id="_Group_">
            <rect x="80.46" y="26.68" width="31.5" height="56.61" style="fill:rgb(255,95,0);"/>
            <path id="_Path_" d="M82.46,55C82.451,43.963 87.528,33.515 96.21,26.7C89.868,21.716 82.031,19.005 73.965,19.005C54.216,19.005 37.965,35.256 37.965,55.005C37.965,74.754 54.216,91.005 73.965,91.005C82.031,91.005 89.868,88.294 96.21,83.31C87.525,76.493 82.448,66.041 82.46,55Z" style="fill:rgb(235,0,27);fill-rule:nonzero;"/>
            <path d="M154.46,55C154.46,74.749 138.209,90.999 118.46,90.999C110.392,90.999 102.553,88.287 96.21,83.3C104.889,76.479 109.965,66.033 109.965,54.995C109.965,43.957 104.889,33.511 96.21,26.69C102.553,21.703 110.392,18.991 118.46,18.991C138.209,18.991 154.46,35.242 154.46,54.991C154.46,54.994 154.46,54.997 154.46,55Z" style="fill:rgb(247,158,27);fill-rule:nonzero;"/>
            <path d="M151,77.29L151,76.13L151.47,76.13L151.47,75.9L150.3,75.9L150.3,76.14L150.77,76.14L150.77,77.3L151,77.29ZM153.31,77.29L153.31,75.89L153,75.89L152.58,76.89L152.16,75.89L151.79,75.89L151.79,77.29L152,77.29L152,76.24L152.39,77.15L152.66,77.15L153.05,76.24L153.05,77.3L153.31,77.29Z" style="fill:rgb(247,158,27);fill-rule:nonzero;"/>
        </g>
    </g>
</svg>
