<?xml version="1.0" encoding="UTF-8" standalone="no"?>
<!DOCTYPE svg PUBLIC "-//W3C//DTD SVG 1.1//EN" "http://www.w3.org/Graphics/SVG/1.1/DTD/svg11.dtd">
<svg width="100%" height="100%" viewBox="0 0 1014 172" version="1.1" xmlns="http://www.w3.org/2000/svg" xmlns:xlink="http://www.w3.org/1999/xlink" xml:space="preserve" xmlns:serif="http://www.serif.com/" style="fill-rule:evenodd;clip-rule:evenodd;stroke-linejoin:round;stroke-miterlimit:2;">
    <g transform="matrix(1,0,0,1,-14.9,-8.6)">
        <g>
            <path id="path2491" d="M197.4,85.3C197.3,81.8 195.6,80 192.4,79.9L175.2,79.9C171.1,80.1 169,82.4 168.9,86.6L168.9,117.5C169,121.8 171.3,124 175.8,124.2L191.5,124.2C193.1,124.2 194.5,123.6 195.6,122.4C196.7,121.5 197.3,120.3 197.3,118.8L197.3,85.3L197.4,85.3ZM146.9,81C147,73.3 148.7,67.4 152.1,63.4C153.8,61.7 156,60.3 158.7,59.1C161.5,57.9 164.1,57.3 166.7,57.3L198.2,57.3C212.1,57.4 219.2,65 219.4,80.1L219.4,126.6C219.3,132 217.2,136.6 213.1,140.5C209.1,144.6 204.3,146.7 198.7,146.8L169,146.8L169,180.3L146.9,180.3L146.9,81" style="fill:rgb(0,138,201);fill-rule:nonzero;"/>
            <path id="path2493" d="M259.3,119.7C259.3,121 259.9,122 261.1,122.8C262.1,123.7 263.5,124.2 265.1,124.2L282,124.2C285.8,124.2 287.8,122.7 287.9,119.7L287.9,113.4C287.9,109.9 285.9,108.2 281.8,108.2L265,108.2C262.8,108.2 261.3,108.6 260.4,109.3C259.6,110.1 259.2,111.7 259.2,114.1L259.2,119.7L259.3,119.7ZM287.9,84.8C288,81.4 286,79.8 282,79.9L237.6,79.9L237.6,57.2L287.6,57.2C302.2,57.4 309.6,64.5 309.8,78.4L309.8,125.8C309.7,131.8 307.8,136.7 304.3,140.7C300.6,144.8 295.8,146.8 289.9,146.8L259.7,146.8C245,146.7 237.5,140 237.3,126.6L237.3,108.3C237.4,94.3 244.5,87.2 258.7,87L288,87L288,84.8" style="fill:rgb(0,138,201);fill-rule:nonzero;"/>
            <path id="path2495" d="M371.8,157.7C373.5,157.6 375.1,157 376.3,155.8C377.5,154.7 378.1,153.5 378.1,152.2L378.1,146.8L349.9,146.8C346.2,146.8 343.3,146.3 341.1,145.4C338.8,144.5 336.5,143 334.1,140.7C331.9,138.3 330.3,135.8 329.3,133.2C328.3,130.8 327.8,127.8 327.8,124.1L327.8,57.2L349.9,57.2L349.9,117C349.9,121.8 351.9,124.2 355.8,124.2L371.4,124.2C373.3,124.2 374.9,123.6 376.2,122.4C377.5,121.3 378.1,120.1 378.1,118.6L378.1,57.2L400,57.2L400,155.9C399.9,163.2 398,169.1 394.4,173.5C390.7,177.9 385.7,180.2 379.3,180.3L327.8,180.3L327.8,157.6L371.8,157.6" style="fill:rgb(0,138,201);fill-rule:nonzero;"/>
            <path id="path2497" d="M417.3,124.1L456.6,124.1C460.2,124 462.1,122.5 462.2,119.8L462.2,117.8C462.2,117.2 462,116.6 461.7,115.9C460.8,114.2 459.7,113.3 458.5,113.3L439,113.3C433.2,113.2 428.3,111.2 424.1,107.3C419.9,103.7 417.8,99.4 417.6,94.2L417.6,77.4C417.8,64.2 425,57.5 439.1,57.3L484.7,57.3L484.7,80L446,80C441.5,80 439.2,81.4 439.2,84.2L439.2,86.4C439.2,89.3 441.5,90.7 446.2,90.7L465.6,90.7C470.8,90.8 475.2,92.8 478.9,96.7C482.6,100.6 484.5,105.2 484.7,110.6L484.7,127C484.6,131.6 482.4,136.3 478.3,140.9C476.3,143.2 474.2,144.7 472.2,145.6C470.1,146.4 467.2,146.8 463.5,146.8L417.4,146.8L417.4,124.1" style="fill:rgb(0,138,201);fill-rule:nonzero;"/>
            <path id="path2499" d="M522.4,119.7C522.4,121 523,122 524.2,122.8C525.2,123.7 526.5,124.2 528.2,124.2L545.2,124.2C549,124.2 551,122.7 551.1,119.7L551.1,113.4C551.1,109.9 549.1,108.2 545,108.2L528.2,108.2C526,108.2 524.5,108.6 523.6,109.3C522.8,110.1 522.4,111.7 522.4,114.1L522.4,119.7ZM551.1,84.8C551.2,81.4 549.2,79.8 545.1,79.9L500.7,79.9L500.7,57.2L550.7,57.2C565.3,57.4 572.7,64.5 572.9,78.4L572.9,125.8C572.8,131.8 570.9,136.7 567.4,140.7C563.7,144.8 558.9,146.8 553,146.8L522.7,146.8C508,146.7 500.5,140 500.3,126.6L500.3,108.3C500.4,94.3 507.5,87.2 521.7,87L551.1,87L551.1,84.8" style="fill:rgb(0,138,201);fill-rule:nonzero;"/>
            <path id="path2501" d="M590.9,44.4C591,38.3 593.3,33.4 597.7,29.7C602,26 607.6,24 614.6,23.9L628.6,23.9L628.6,45.8L620.1,45.8C615.4,45.9 613.1,48.1 613,52.5L613,57.3L628.6,57.3L628.6,80L613,80L613,146.9L590.9,146.9L590.9,44.4" style="fill:rgb(0,138,201);fill-rule:nonzero;"/>
            <path id="path2503" d="M691.3,84.4L691.3,83.9C691.3,82.7 690.8,81.7 689.9,81C688.9,80.3 687.6,79.9 686.1,79.9L670.7,79.9C668.7,79.9 667.1,80.5 665.9,81.6C664.4,82.6 663.6,84 663.6,85.7L663.6,94.8L691.3,84.4ZM664,116.4L664,117.8C664,119.6 664.5,121.1 665.4,122.1C666.1,123.4 667,124.1 668.3,124.1L713.6,124.1L713.6,146.8L665.4,146.8C661,146.8 657.6,146.4 655.2,145.6C652.6,144.7 650.2,143.3 648.1,141.3C645.7,138.9 644,136.5 643.2,133.9C642.3,131.3 641.8,127.8 641.8,123.5L641.6,78.1C641.8,64.4 649,57.4 663.1,57.2L692.8,57.2C706.5,57.4 713.5,64.7 713.7,78.9L713.7,96.8L664,116.4" style="fill:rgb(0,138,201);fill-rule:nonzero;"/>
            <path id="path2505" d="M760.5,146.8C757.2,146.8 754.1,146.5 751.3,145.9C748.4,145.4 745.5,144.1 742.6,141.8C739.6,139.2 737.5,136.2 736.3,132.9C735.1,129.7 734.5,126 734.5,122L734.5,79.8C734.4,76.4 734.7,73.3 735.5,70.7C736.2,68.1 737.8,65.5 740.2,63C742.9,60.4 745.6,58.6 748.5,57.7C751.3,57 754.4,56.6 757.9,56.6L791.7,56.6L791.7,61.9L758.7,61.9C752.9,61.9 748.3,63.1 744.9,65.5C741.5,68.1 739.7,72.6 739.7,79L739.7,121.3C739.7,124.3 740.2,127.2 741.1,130C742,132.7 743.6,135.2 745.8,137.3C748.2,139.1 750.6,140.3 752.9,140.7C755.3,141.2 757.9,141.5 760.7,141.5L792.2,141.5L792.2,146.8L760.5,146.8" style="fill:rgb(0,138,201);fill-rule:nonzero;"/>
            <path id="path2507" d="M878.7,91.9L834.4,91.9C829.1,92 824.9,93.7 821.9,96.8C818.8,100 817.3,104.4 817.3,110L817.3,123.5C817.3,126.1 817.6,128.5 818.1,130.7C818.7,133 820,135 822.2,136.7C826,139.9 830.3,141.4 834.9,141.4L861.8,141.4C873,141.3 878.7,135.4 878.7,123.6L878.7,91.9ZM884,122.4C884,125.8 883.7,128.8 883.3,131.4C882.6,134.3 881.1,137 878.9,139.6C874.3,144.5 868.5,146.9 861.7,146.7L835.3,146.7C828.4,146.7 822.9,144.7 818.6,140.6C814.2,136.6 812,131 812,123.8L812,110.2C812.2,94.8 819.9,86.9 835,86.6L878.9,86.6L878.9,80.6C878.9,75.7 877.5,71.4 874.6,67.7C872.8,65.3 870.7,63.7 868.3,62.9C865.9,62.3 863.1,61.9 860.1,61.9L812.2,61.9L812.2,56.6L857.6,56.6C861.8,56.6 865.5,56.9 868.9,57.5C870.6,57.8 872.2,58.5 873.7,59.5C875.3,60.4 876.7,61.8 878,63.6C882.1,68.9 884.1,74.9 884,81.7L884,122.4" style="fill:rgb(0,138,201);fill-rule:nonzero;"/>
            <path id="path2509" d="M933.6,61.9C921.3,62.1 915.2,68.8 915.5,82L915.5,146.7L910.2,146.7L910.2,82.1C910,65.1 918,56.6 934.5,56.6L940.4,56.6L940.4,61.9L933.6,61.9" style="fill:rgb(0,138,201);fill-rule:nonzero;"/>
            <path id="path2511" d="M1023,62L981.1,62C978.1,62 975.4,62.3 973,63C970.5,63.6 968,65.1 965.7,67.6C963.5,69.9 962.1,72.2 961.5,74.4C960.7,76.7 960.4,79.4 960.5,82.6L960.5,123.9C960.5,130.8 962.5,135.4 966.5,137.9C968.5,139.1 970.7,139.9 973.1,140.5C975.5,141.1 978.3,141.5 981.3,141.5L999.6,141.5C1006.4,141.5 1012,139.9 1016.3,136.8C1020.6,133.8 1022.8,128.7 1023,121.4L1023,62ZM1028.1,121.7C1027.6,138.8 1018.6,147.2 1001,146.8L981.4,146.8C977.3,146.8 973.6,146.4 970.3,145.7C966.9,144.8 963.7,142.8 960.6,139.6C958.3,136.7 956.8,133.8 956.2,130.8C955.4,127.8 955,124.5 955.2,120.9L955.2,82.5C955.4,65.2 964.2,56.5 981.4,56.7L1022.9,56.7L1022.9,27.4L1028.2,27.4L1028.2,121.7" style="fill:rgb(0,138,201);fill-rule:nonzero;"/>
            <path id="path2513" d="M24.3,53.8C26,53 27.8,52.4 29.5,52.1C32.7,36.9 46.2,25.5 62.3,25.5C78.5,25.5 91.9,36.9 95.1,52.1C100.1,53 104.2,55 107.3,58C107.4,55.1 107.3,52.3 107,49.6C105,26.6 85.7,8.6 62.2,8.6C38,8.6 18.3,27.8 17.3,51.7C17.2,53.8 17.1,55.9 17.2,58.2C19.3,56.5 21.6,55 24.3,53.8" style="fill:rgb(227,0,27);fill-rule:nonzero;"/>
            <path id="path2515" d="M88.6,57.2L34.7,57.2C32.1,57.2 29.4,57.8 26.7,59C24,60.2 21.8,61.6 20.1,63.3C16.8,67.3 15,73.2 14.9,80.9L14.9,123C15,130.7 16.7,136.6 20.1,140.6C21.9,142.3 24,143.7 26.7,144.9C29.5,146.1 32.2,146.7 34.7,146.7L88.6,146.7C102.5,146.6 109.6,138.9 109.8,123.8L109.8,80.1C109.6,65 102.5,57.3 88.6,57.2" style="fill:rgb(227,0,27);fill-rule:nonzero;"/>
        </g>
    </g>
</svg>
