<svg xmlns="http://www.w3.org/2000/svg" version="1.1" xmlns:xlink="http://www.w3.org/1999/xlink" xmlns:svgjs="http://svgjs.com/svgjs" width="512" height="512" x="0" y="0" viewBox="0 0 339.921 339.921" style="enable-background:new 0 0 512 512" xml:space="preserve" class=""><g><path d="m335.165 292.071-81.385-84.077c-5.836-6.032-13.13-8.447-16.29-5.363-3.171 3.062-10.47.653-16.306-5.379l-1.164-1.207c36.425-47.907 32.89-116.499-10.851-160.24-47.739-47.739-125.142-47.739-172.875 0-47.739 47.739-47.739 125.131 0 172.87 44.486 44.492 114.699 47.472 162.704 9.045l.511.533c5.825 6.032 7.995 13.402 4.814 16.469-3.166 3.068-1.012 10.443 4.83 16.464l81.341 84.11c5.836 6.016 15.452 6.195 21.49.354l22.828-22.088c6.015-5.827 6.178-15.437.353-21.491zM182.306 181.81c-32.852 32.857-86.312 32.857-119.159.011-32.852-32.852-32.847-86.318 0-119.164 32.847-32.852 86.307-32.847 119.148.005 32.857 32.847 32.857 86.302.011 119.148z" style="" fill="#393939" data-original="#010002" class=""></path></g></svg>