<svg xmlns="http://www.w3.org/2000/svg" version="1.1" xmlns:xlink="http://www.w3.org/1999/xlink" xmlns:svgjs="http://svgjs.com/svgjs" width="512" height="512" x="0" y="0" viewBox="0 0 462 462" style="enable-background:new 0 0 512 512" xml:space="preserve" class=""><g><path d="M231 229.91a72 72 0 1 1 72-72 72.08 72.08 0 0 1-72 72zm0-124a52 52 0 1 0 52 52 52.06 52.06 0 0 0-52-52zM356 376.09a10 10 0 0 1-10-10v-24.72a71.7 71.7 0 0 0-71.62-71.62h-86.76A71.7 71.7 0 0 0 116 341.37v24.72a10 10 0 0 1-20 0v-24.72a91.73 91.73 0 0 1 91.62-91.62h86.75A91.73 91.73 0 0 1 366 341.37v24.72a10 10 0 0 1-10 10z" fill="#b8b6b4" data-original="#000000" class=""></path></g></svg>